<?xml version="1.0" encoding="UTF-8" standalone="no"?>
<!-- Creator: CorelDRAW -->
<svg
   xmlns:dc="http://purl.org/dc/elements/1.1/"
   xmlns:cc="http://creativecommons.org/ns#"
   xmlns:rdf="http://www.w3.org/1999/02/22-rdf-syntax-ns#"
   xmlns:svg="http://www.w3.org/2000/svg"
   xmlns="http://www.w3.org/2000/svg"
   xmlns:sodipodi="http://sodipodi.sourceforge.net/DTD/sodipodi-0.dtd"
   xmlns:inkscape="http://www.inkscape.org/namespaces/inkscape"
   xml:space="preserve"
   width="215.9mm"
   height="279.4mm"
   style="shape-rendering:geometricPrecision; text-rendering:geometricPrecision; image-rendering:optimizeQuality; fill-rule:evenodd; clip-rule:evenodd"
   viewBox="0 0 215.9 279.4"
   id="svg2717"
   sodipodi:version="0.32"
   inkscape:version="0.46"
   sodipodi:docname="sitlogo.svg"
   inkscape:output_extension="org.inkscape.output.svg.inkscape"><metadata
   id="metadata2746"><rdf:RDF><cc:Work
       rdf:about=""><dc:format>image/svg+xml</dc:format><dc:type
         rdf:resource="http://purl.org/dc/dcmitype/StillImage" /></cc:Work></rdf:RDF></metadata><sodipodi:namedview
   inkscape:window-height="955"
   inkscape:window-width="1272"
   inkscape:pageshadow="2"
   inkscape:pageopacity="0.0"
   guidetolerance="10.0"
   gridtolerance="10.0"
   objecttolerance="10.0"
   borderopacity="1.0"
   bordercolor="#666666"
   pagecolor="#ffffff"
   id="base"
   showgrid="false"
   inkscape:zoom="2.2868687"
   inkscape:cx="382.5"
   inkscape:cy="529.98233"
   inkscape:window-x="0"
   inkscape:window-y="0"
   inkscape:current-layer="svg2717" />
 <defs
   id="defs2719"><inkscape:perspective
   sodipodi:type="inkscape:persp3d"
   inkscape:vp_x="0 : 495 : 1"
   inkscape:vp_y="0 : 1000 : 0"
   inkscape:vp_z="765 : 495 : 1"
   inkscape:persp3d-origin="382.5 : 330 : 1"
   id="perspective2748" />
  <style
   type="text/css"
   id="style2721">
   
    .fil0 {fill:none}
    .fil2 {fill:#3BB3C2}
    .fil3 {fill:#3BB3C2;fill-rule:nonzero}
    .fil1 {fill:#4D485B;fill-rule:nonzero}
   
  </style>
 
  <metadata
   id="CorelCorpID_0Corel-Layer" />
  
 
   
   
  
    
    
   
     
     
     
     
     
     
     
     
     
     
    </defs>
 <g
   id="g3593"><polygon
     style="fill:none"
     points="73.5954,125.22 143.839,125.22 143.839,157.149 73.5954,157.149 73.5954,125.22 "
     class="fil0"
     id="_43838920" /><g
     id="g3578"><g
       id="g2729">
     <path
   style="fill:#4d485b;fill-rule:nonzero"
   d="M 80.4063,150.027 C 80.4063,149.668 80.4571,149.4044 80.5588,149.236 C 80.6605,149.0677 80.825,148.9612 81.0525,148.9166 C 81.1431,148.9003 81.2216,148.8922 81.288,148.8922 C 81.5436,148.8922 81.7389,148.9881 81.8737,149.1797 C 82.0086,149.3714 82.0761,149.6538 82.0761,150.027 C 82.0761,150.386 82.0253,150.6502 81.9235,150.8196 C 81.8219,150.9889 81.6574,151.0949 81.4299,151.1375 C 81.3393,151.1537 81.2608,151.1619 81.1944,151.1619 C 80.9387,151.1619 80.7435,151.066 80.6087,150.8743 C 80.4738,150.6827 80.4063,150.4002 80.4063,150.027 z M 80.66,150.027 C 80.66,150.3455 80.7068,150.5747 80.8004,150.7146 C 80.894,150.8546 81.0415,150.9245 81.2427,150.9245 C 81.4239,150.9245 81.5653,150.8652 81.6669,150.7466 C 81.7686,150.6279 81.8194,150.452 81.8194,150.2187 C 81.8194,149.8191 81.7762,149.5382 81.6896,149.376 C 81.603,149.2137 81.454,149.1326 81.2427,149.1326 C 81.0434,149.1326 80.8965,149.2025 80.8019,149.3425 C 80.7073,149.4824 80.66,149.7106 80.66,150.027 L 80.66,150.027 z M 82.4173,151.5239 L 82.4173,149.5798 C 82.4173,149.5392 82.4268,149.5032 82.446,149.4718 C 82.465,149.4404 82.4958,149.4246 82.5381,149.4246 C 82.5763,149.4246 82.6064,149.4388 82.6286,149.4672 C 82.6407,149.4814 82.6477,149.4966 82.6497,149.5129 L 82.6588,149.525 L 82.6588,149.5494 L 82.6588,149.5768 L 82.6588,149.5981 C 82.693,149.5479 82.7438,149.5063 82.8113,149.4733 C 82.8787,149.4409 82.9567,149.4246 83.0453,149.4246 C 83.2667,149.4246 83.4272,149.5027 83.5268,149.6584 C 83.6265,149.8141 83.6763,150.0696 83.6763,150.4261 C 83.6763,150.6685 83.6235,150.8505 83.5173,150.9727 C 83.4111,151.0949 83.2622,151.1558 83.0699,151.1558 C 82.9381,151.1558 82.8269,151.1243 82.7368,151.0615 L 82.7217,151.0493 L 82.701,151.0341 L 82.6859,151.0219 L 82.6799,151.0128 L 82.6588,150.9854 L 82.6588,151.0067 L 82.6588,151.028 L 82.6588,151.0858 L 82.6588,151.533 C 82.6588,151.6344 82.6215,151.6851 82.5471,151.6851 C 82.4606,151.6851 82.4173,151.6314 82.4173,151.5239 L 82.4173,151.5239 z M 82.6497,150.313 C 82.6497,150.5169 82.6754,150.6644 82.7267,150.7547 C 82.778,150.8454 82.8611,150.8972 82.9758,150.9093 C 83.0121,150.9134 83.0383,150.9154 83.0543,150.9154 C 83.1792,150.9154 83.2723,150.8728 83.3336,150.7871 C 83.395,150.7014 83.4257,150.566 83.4257,150.3805 C 83.4257,150.1361 83.4046,149.9637 83.3628,149.8638 C 83.321,149.7639 83.2431,149.6995 83.1294,149.6711 C 83.1132,149.669 83.0981,149.666 83.084,149.6619 C 83.0725,149.6599 83.0563,149.6589 83.0362,149.6589 C 83.0222,149.6589 83.0075,149.6599 82.9914,149.6619 C 82.9854,149.6619 82.9693,149.665 82.9436,149.6711 C 82.8415,149.6954 82.7685,149.7456 82.7247,149.8212 C 82.681,149.8962 82.6588,150.0255 82.6588,150.2091 L 82.6497,150.313 L 82.6497,150.313 z M 85.026,150.3739 L 84.2138,150.3739 C 84.1957,150.3739 84.1856,150.3749 84.1836,150.3769 C 84.1796,150.381 84.1776,150.3942 84.1776,150.4165 C 84.1776,150.4388 84.1776,150.4606 84.1776,150.4819 C 84.1776,150.5032 84.1776,150.525 84.1776,150.5473 C 84.1776,150.6467 84.2053,150.7288 84.2612,150.7937 C 84.3165,150.8586 84.3875,150.9002 84.4745,150.9185 C 84.5088,150.9245 84.5419,150.9276 84.5742,150.9276 C 84.7135,150.9276 84.8248,150.8586 84.9078,150.7207 C 84.9339,150.6781 84.9541,150.6502 84.9682,150.637 C 84.9823,150.6239 85.0014,150.6152 85.0255,150.6112 C 85.0638,150.601 85.096,150.6091 85.1212,150.6355 C 85.1463,150.6619 85.1548,150.6964 85.1468,150.739 C 85.1448,150.7674 85.1297,150.8049 85.1016,150.8515 C 85.0734,150.8982 85.0411,150.9387 85.0049,150.9732 C 84.9164,151.0625 84.8066,151.1172 84.6758,151.1375 C 84.6517,151.1395 84.6285,151.1421 84.6063,151.1451 C 84.5842,151.1482 84.5601,151.1497 84.5339,151.1497 C 84.1313,151.1497 83.93,150.8617 83.93,150.2856 C 83.93,149.9936 83.9829,149.7791 84.0886,149.6422 C 84.1942,149.5053 84.3507,149.4368 84.5581,149.4368 C 84.7453,149.4368 84.8902,149.4982 84.9929,149.6209 C 85.0955,149.7436 85.1468,149.9266 85.1468,150.17 L 85.1468,150.2278 C 85.1468,150.2887 85.1418,150.3272 85.1317,150.3434 C 85.1217,150.3597 85.0965,150.3698 85.0563,150.3739 L 85.026,150.3739 z M 84.8323,150.1609 C 84.8711,150.1609 84.8932,150.1558 84.8992,150.1457 C 84.9052,150.1335 84.9083,150.098 84.9083,150.0392 L 84.9023,149.9814 C 84.8841,149.8759 84.8454,149.7948 84.787,149.738 C 84.7287,149.6812 84.6537,149.6528 84.5626,149.6528 C 84.5183,149.6528 84.4796,149.6579 84.4473,149.668 C 84.312,149.7045 84.2269,149.8049 84.1927,149.9692 L 84.1836,150.0301 C 84.1817,150.0463 84.1802,150.0635 84.1791,150.0818 C 84.1781,150.1001 84.1776,150.1112 84.1776,150.1153 C 84.1776,150.1376 84.1817,150.1508 84.1897,150.1548 C 84.1957,150.1589 84.2118,150.1609 84.2385,150.1609 L 84.8323,150.1609 L 84.8323,150.1609 z M 85.4699,151.0249 L 85.4699,149.5894 C 85.4699,149.5281 85.49,149.4855 85.5303,149.4611 C 85.5504,149.447 85.5736,149.4399 85.5998,149.4399 C 85.644,149.4399 85.6763,149.4601 85.6963,149.5007 L 85.7114,149.5433 L 85.7114,149.6102 C 85.7255,149.5874 85.7422,149.5686 85.7612,149.5529 C 85.7804,149.5372 85.8101,149.52 85.8504,149.5002 C 85.8906,149.4804 85.9369,149.4657 85.9892,149.4556 C 86.0416,149.4449 86.0888,149.4399 86.1311,149.4399 C 86.2881,149.4399 86.414,149.4895 86.5085,149.5894 C 86.6032,149.6888 86.6505,149.8176 86.6505,149.9763 L 86.6505,150.994 C 86.6505,151.0675 86.6324,151.1162 86.5962,151.1406 C 86.576,151.1548 86.5529,151.1619 86.5267,151.1619 C 86.4764,151.1619 86.4421,151.1406 86.4241,151.098 C 86.4159,151.0817 86.412,151.0503 86.412,151.0031 L 86.412,150.0245 C 86.412,149.9129 86.3918,149.8298 86.351,149.7745 C 86.3108,149.7198 86.2424,149.6843 86.1452,149.668 C 86.1165,149.664 86.0944,149.6619 86.0783,149.6619 C 86.0662,149.6619 86.0542,149.6619 86.0421,149.6619 C 86.026,149.666 86.0139,149.668 86.0059,149.668 C 85.8096,149.7066 85.7114,149.8237 85.7114,150.0194 L 85.7114,151.0092 C 85.7114,151.0822 85.6878,151.1294 85.64,151.1497 C 85.6239,151.1578 85.6063,151.1619 85.5862,151.1619 C 85.5444,151.1619 85.5127,151.1446 85.4905,151.1101 C 85.477,151.0858 85.4699,151.0574 85.4699,151.0249 L 85.4699,151.0249 z M 87.7888,150.815 C 87.7888,150.7319 87.8271,150.6903 87.9035,150.6903 C 87.9096,150.6903 87.9217,150.6923 87.9398,150.6964 C 87.9579,150.7004 87.9735,150.708 87.9866,150.7192 C 87.9997,150.7303 88.0163,150.7461 88.0364,150.7663 C 88.1089,150.8333 88.1884,150.8799 88.275,150.9063 C 88.3414,150.9245 88.4017,150.9337 88.4561,150.9337 C 88.5487,150.9337 88.6247,150.9149 88.6841,150.8774 C 88.7434,150.8399 88.7812,150.7897 88.7973,150.7268 C 88.8054,150.6903 88.8094,150.6649 88.8094,150.6507 C 88.8094,150.525 88.7278,150.4438 88.5648,150.4073 L 88.4471,150.38 L 88.3987,150.3708 L 88.3081,150.3526 C 88.1491,150.3161 88.0329,150.2628 87.9594,150.1928 C 87.886,150.1229 87.8492,150.0321 87.8492,149.9206 C 87.8492,149.8881 87.8522,149.8536 87.8583,149.8171 C 87.8764,149.7056 87.9378,149.6123 88.0425,149.5372 C 88.1472,149.4622 88.276,149.4246 88.4289,149.4246 C 88.445,149.4246 88.4622,149.4246 88.4802,149.4246 C 88.5044,149.4287 88.5266,149.4317 88.5467,149.4338 C 88.5669,149.4358 88.593,149.4409 88.6252,149.449 C 88.6574,149.4571 88.6886,149.4672 88.7188,149.4794 C 88.8214,149.5179 88.896,149.5646 88.9422,149.6194 C 88.9825,149.666 88.9976,149.7116 88.9876,149.7563 C 88.9719,149.8151 88.9357,149.8445 88.8793,149.8445 C 88.8637,149.8445 88.8522,149.8425 88.8447,149.8384 L 88.8094,149.8202 L 88.7575,149.7776 C 88.7234,149.7492 88.6916,149.7274 88.6634,149.7121 C 88.6348,149.6969 88.6036,149.6843 88.5689,149.6741 C 88.5648,149.6721 88.5558,149.6696 88.5412,149.6665 C 88.5271,149.6635 88.512,149.6604 88.4959,149.6574 C 88.4792,149.6543 88.4531,149.6528 88.4163,149.6528 C 88.3721,149.6528 88.3314,149.6589 88.2945,149.6711 C 88.2583,149.6832 88.2236,149.7015 88.1914,149.7258 C 88.1326,149.7725 88.1028,149.8293 88.1028,149.8962 C 88.1028,149.9692 88.1351,150.024 88.1995,150.0605 C 88.2257,150.0767 88.2508,150.0884 88.275,150.0955 C 88.2991,150.1026 88.3444,150.1132 88.4109,150.1274 L 88.4894,150.1457 L 88.5799,150.1639 C 88.8919,150.239 89.0479,150.3911 89.0479,150.6203 C 89.0479,150.671 89.0409,150.7237 89.0268,150.7785 C 88.9986,150.8921 88.9322,150.9844 88.8275,151.0554 C 88.7228,151.1264 88.592,151.1619 88.435,151.1619 C 88.3927,151.1619 88.3424,151.1583 88.284,151.1512 C 88.2257,151.1441 88.1642,151.1264 88.0998,151.098 C 87.9931,151.0493 87.9146,151.0006 87.8643,150.9519 C 87.814,150.9032 87.7888,150.8576 87.7888,150.815 L 87.7888,150.815 z M 89.2562,150.3039 C 89.2562,150.0281 89.2945,149.8278 89.3709,149.703 C 89.4475,149.5783 89.5763,149.4997 89.7575,149.4672 C 89.7777,149.4652 89.7977,149.4627 89.8178,149.4596 C 89.838,149.4566 89.8611,149.4551 89.8873,149.4551 C 89.9216,149.4551 89.9492,149.4571 89.9704,149.4611 C 89.9915,149.4652 90.0071,149.4672 90.0171,149.4672 C 90.2064,149.5017 90.3362,149.5925 90.4067,149.7395 C 90.4771,149.8866 90.5124,150.1345 90.5124,150.4834 C 90.5124,150.6842 90.4716,150.8363 90.3901,150.9398 C 90.3085,151.0432 90.1843,151.1101 90.0171,151.1406 C 89.9789,151.1487 89.9356,151.1527 89.8873,151.1527 C 89.8611,151.1527 89.835,151.1527 89.8088,151.1527 C 89.7847,151.1466 89.7675,151.1426 89.7575,151.1406 C 89.5763,151.1081 89.4475,151.03 89.3709,150.9063 C 89.2945,150.7826 89.2562,150.5818 89.2562,150.3039 z M 89.4948,150.3039 L 89.4948,150.4043 C 89.4948,150.595 89.527,150.7314 89.592,150.8135 C 89.6564,150.8956 89.7544,150.9367 89.8858,150.9367 C 90.0171,150.9367 90.1153,150.8956 90.1797,150.8135 C 90.2446,150.7314 90.2769,150.595 90.2769,150.4043 L 90.2769,150.2005 C 90.2769,150.0118 90.2446,149.8764 90.1797,149.7943 C 90.1153,149.7121 90.0171,149.6711 89.8858,149.6711 C 89.7544,149.6711 89.6564,149.7121 89.592,149.7943 C 89.527,149.8764 89.4948,150.0118 89.4948,150.2005 L 89.4948,150.3039 z M 90.8385,150.6507 L 90.8385,149.592 C 90.8385,149.5595 90.8434,149.5321 90.8536,149.5098 C 90.8636,149.4875 90.8777,149.4703 90.8958,149.4581 C 90.9139,149.4459 90.934,149.4399 90.9562,149.4399 C 90.9985,149.4399 91.0307,149.4581 91.0528,149.4946 C 91.0669,149.519 91.074,149.5504 91.074,149.5889 L 91.074,150.6264 C 91.074,150.7298 91.1032,150.8099 91.1615,150.8667 C 91.2199,150.9235 91.3024,150.9519 91.4091,150.9519 C 91.6426,150.9519 91.7594,150.8226 91.7594,150.5645 L 91.7594,149.6138 C 91.7594,149.4977 91.8016,149.4399 91.8862,149.4399 C 91.9174,149.4399 91.9426,149.4485 91.9621,149.4657 C 91.9818,149.483 91.9939,149.5048 91.9978,149.5311 L 91.9978,149.5925 L 91.9978,151.0214 C 91.9978,151.0787 91.9798,151.1193 91.9431,151.1436 C 91.9203,151.1598 91.8937,151.1679 91.8636,151.1679 C 91.8208,151.1679 91.791,151.1527 91.7744,151.1223 L 91.7715,151.1132 L 91.7654,151.0949 L 91.7594,151.0736 L 91.7594,151.0584 L 91.7594,151.0371 L 91.7594,151.0158 L 91.7261,151.0615 L 91.7171,151.0706 L 91.702,151.0797 C 91.6255,151.1385 91.5198,151.1679 91.3849,151.1679 C 91.3145,151.1679 91.2531,151.1608 91.2007,151.1466 C 91.1484,151.1324 91.1001,151.1101 91.0558,151.0797 C 90.9814,151.029 90.9265,150.9692 90.8913,150.9002 C 90.856,150.8312 90.8385,150.7481 90.8385,150.6507 L 90.8385,150.6507 z M 92.3905,151.0219 L 92.3905,149.5798 C 92.3905,149.4804 92.4282,149.4307 92.5036,149.4307 C 92.5393,149.4267 92.5686,149.4368 92.5917,149.4611 C 92.6144,149.4855 92.626,149.521 92.626,149.5676 L 92.626,149.5981 L 92.626,149.6102 C 92.646,149.5717 92.6758,149.5387 92.7155,149.5113 C 92.7548,149.484 92.7961,149.4657 92.8382,149.4566 C 92.881,149.4475 92.9173,149.4429 92.9475,149.4429 C 92.9595,149.4429 92.9757,149.4449 92.9963,149.449 C 93.0728,149.4611 93.1307,149.4835 93.1689,149.5159 C 93.2076,149.5484 93.2268,149.5828 93.2268,149.6194 C 93.2268,149.6518 93.2163,149.6787 93.1951,149.7 C 93.174,149.7213 93.1493,149.7319 93.1211,149.7319 C 93.1131,149.7319 93.103,149.7299 93.0909,149.7258 L 93.0093,149.6954 C 92.9792,149.6832 92.951,149.6772 92.9249,149.6772 C 92.9168,149.6772 92.8987,149.6792 92.8705,149.6832 C 92.7879,149.6954 92.7266,149.7309 92.6863,149.7897 C 92.646,149.8485 92.626,149.9368 92.626,150.0544 L 92.626,151.0249 C 92.626,151.0797 92.6053,151.1193 92.564,151.1436 C 92.5414,151.1558 92.5198,151.1619 92.4991,151.1619 C 92.4413,151.1619 92.405,151.1345 92.3905,151.0797 L 92.3905,151.0219 L 92.3905,151.0219 z M 93.266,150.3161 L 93.266,150.1153 C 93.266,149.9084 93.3234,149.7431 93.4382,149.6194 C 93.5529,149.4956 93.6958,149.4338 93.8669,149.4338 C 93.9192,149.4338 93.9661,149.4378 94.0072,149.4459 C 94.0485,149.4541 94.0954,149.4703 94.1477,149.4946 C 94.2403,149.5352 94.3117,149.5859 94.362,149.6467 C 94.4064,149.6995 94.4285,149.7502 94.4285,149.7989 C 94.4285,149.807 94.4265,149.8191 94.4225,149.8354 C 94.4064,149.884 94.3722,149.9084 94.3198,149.9084 C 94.3078,149.9084 94.2942,149.9064 94.2791,149.9023 C 94.264,149.8982 94.2473,149.8881 94.2293,149.8719 L 94.1809,149.8141 L 94.1447,149.7715 C 94.0682,149.6964 93.9826,149.6589 93.8881,149.6589 C 93.8679,149.6589 93.8528,149.6599 93.8427,149.6619 C 93.732,149.6761 93.6485,149.7233 93.5921,149.8034 C 93.5357,149.8835 93.5076,150.0047 93.5076,150.167 C 93.5076,150.4428 93.5328,150.635 93.5831,150.7435 C 93.6334,150.852 93.723,150.9134 93.8518,150.9276 C 93.8619,150.9296 93.8779,150.9306 93.9001,150.9306 C 93.9283,150.9306 93.9595,150.9256 93.9938,150.9154 C 94.0561,150.8972 94.1034,150.8708 94.1356,150.8363 C 94.1678,150.8018 94.2001,150.744 94.2322,150.6629 L 94.2504,150.6142 C 94.2564,150.5939 94.2699,150.5767 94.2911,150.5625 C 94.3122,150.5483 94.3329,150.5412 94.353,150.5412 C 94.3933,150.5412 94.4225,150.5544 94.4405,150.5808 C 94.4587,150.6071 94.4677,150.6375 94.4677,150.672 C 94.4677,150.7045 94.4612,150.739 94.4481,150.7755 C 94.4351,150.812 94.414,150.8536 94.3837,150.9002 C 94.2755,151.0686 94.121,151.1527 93.9207,151.1527 C 93.6968,151.1527 93.5313,151.0868 93.4251,150.955 C 93.3189,150.8231 93.266,150.6102 93.266,150.3161 L 93.266,150.3161 z M 95.7782,150.3739 L 94.9659,150.3739 C 94.9479,150.3739 94.9378,150.3749 94.9358,150.3769 C 94.9317,150.381 94.9297,150.3942 94.9297,150.4165 C 94.9297,150.4388 94.9297,150.4606 94.9297,150.4819 C 94.9297,150.5032 94.9297,150.525 94.9297,150.5473 C 94.9297,150.6467 94.9574,150.7288 95.0133,150.7937 C 95.0687,150.8586 95.1396,150.9002 95.2267,150.9185 C 95.2609,150.9245 95.2941,150.9276 95.3263,150.9276 C 95.4656,150.9276 95.5769,150.8586 95.66,150.7207 C 95.6861,150.6781 95.7062,150.6502 95.7203,150.637 C 95.7344,150.6239 95.7536,150.6152 95.7777,150.6112 C 95.816,150.601 95.8481,150.6091 95.8733,150.6355 C 95.8985,150.6619 95.907,150.6964 95.8989,150.739 C 95.897,150.7674 95.8819,150.8049 95.8537,150.8515 C 95.8255,150.8982 95.7933,150.9387 95.757,150.9732 C 95.6685,151.0625 95.5587,151.1172 95.4279,151.1375 C 95.4038,151.1395 95.3806,151.1421 95.3585,151.1451 C 95.3363,151.1482 95.3122,151.1497 95.286,151.1497 C 94.8835,151.1497 94.6821,150.8617 94.6821,150.2856 C 94.6821,149.9936 94.735,149.7791 94.8407,149.6422 C 94.9463,149.5053 95.1028,149.4368 95.3102,149.4368 C 95.4974,149.4368 95.6423,149.4982 95.745,149.6209 C 95.8476,149.7436 95.8989,149.9266 95.8989,150.17 L 95.8989,150.2278 C 95.8989,150.2887 95.894,150.3272 95.8839,150.3434 C 95.8738,150.3597 95.8486,150.3698 95.8084,150.3739 L 95.7782,150.3739 L 95.7782,150.3739 z M 95.5844,150.1609 C 95.6232,150.1609 95.6454,150.1558 95.6513,150.1457 C 95.6574,150.1335 95.6605,150.098 95.6605,150.0392 L 95.6544,149.9814 C 95.6362,149.8759 95.5975,149.7948 95.5392,149.738 C 95.4808,149.6812 95.4058,149.6528 95.3147,149.6528 C 95.2704,149.6528 95.2317,149.6579 95.1995,149.668 C 95.0641,149.7045 94.9791,149.8049 94.9448,149.9692 L 94.9358,150.0301 C 94.9338,150.0463 94.9323,150.0635 94.9312,150.0818 C 94.9302,150.1001 94.9297,150.1112 94.9297,150.1153 C 94.9297,150.1376 94.9338,150.1508 94.9418,150.1548 C 94.9479,150.1589 94.964,150.1609 94.9907,150.1609 L 95.5844,150.1609 L 95.5844,150.1609 z M 96.9678,150.815 C 96.9678,150.7319 97.0061,150.6903 97.0825,150.6903 C 97.0886,150.6903 97.1007,150.6923 97.1189,150.6964 C 97.1369,150.7004 97.1525,150.708 97.1656,150.7192 C 97.1787,150.7303 97.1953,150.7461 97.2154,150.7663 C 97.2879,150.8333 97.3674,150.8799 97.454,150.9063 C 97.5204,150.9245 97.5807,150.9337 97.6351,150.9337 C 97.7277,150.9337 97.8037,150.9149 97.8631,150.8774 C 97.9224,150.8399 97.9603,150.7897 97.9763,150.7268 C 97.9844,150.6903 97.9884,150.6649 97.9884,150.6507 C 97.9884,150.525 97.9069,150.4438 97.7438,150.4073 L 97.6261,150.38 L 97.5778,150.3708 L 97.4872,150.3526 C 97.3282,150.3161 97.2119,150.2628 97.1384,150.1928 C 97.065,150.1229 97.0282,150.0321 97.0282,149.9206 C 97.0282,149.8881 97.0312,149.8536 97.0373,149.8171 C 97.0554,149.7056 97.1168,149.6123 97.2215,149.5372 C 97.3262,149.4622 97.455,149.4246 97.6079,149.4246 C 97.624,149.4246 97.6412,149.4246 97.6592,149.4246 C 97.6835,149.4287 97.7056,149.4317 97.7257,149.4338 C 97.7459,149.4358 97.772,149.4409 97.8042,149.449 C 97.8364,149.4571 97.8677,149.4672 97.8978,149.4794 C 98.0004,149.5179 98.075,149.5646 98.1212,149.6194 C 98.1615,149.666 98.1766,149.7116 98.1666,149.7563 C 98.1509,149.8151 98.1147,149.8445 98.0583,149.8445 C 98.0427,149.8445 98.0312,149.8425 98.0237,149.8384 L 97.9884,149.8202 L 97.9365,149.7776 C 97.9024,149.7492 97.8706,149.7274 97.8424,149.7121 C 97.8138,149.6969 97.7826,149.6843 97.7479,149.6741 C 97.7438,149.6721 97.7348,149.6696 97.7202,149.6665 C 97.7061,149.6635 97.691,149.6604 97.6749,149.6574 C 97.6583,149.6543 97.6322,149.6528 97.5953,149.6528 C 97.5511,149.6528 97.5104,149.6589 97.4736,149.6711 C 97.4373,149.6832 97.4026,149.7015 97.3704,149.7258 C 97.3116,149.7725 97.2818,149.8293 97.2818,149.8962 C 97.2818,149.9692 97.3141,150.024 97.3785,150.0605 C 97.4047,150.0767 97.4298,150.0884 97.454,150.0955 C 97.4781,150.1026 97.5234,150.1132 97.5899,150.1274 L 97.6684,150.1457 L 97.7589,150.1639 C 98.0709,150.239 98.2269,150.3911 98.2269,150.6203 C 98.2269,150.671 98.2199,150.7237 98.2058,150.7785 C 98.1776,150.8921 98.1112,150.9844 98.0065,151.0554 C 97.9018,151.1264 97.771,151.1619 97.614,151.1619 C 97.5717,151.1619 97.5214,151.1583 97.463,151.1512 C 97.4047,151.1441 97.3433,151.1264 97.2788,151.098 C 97.1722,151.0493 97.0937,151.0006 97.0433,150.9519 C 96.993,150.9032 96.9678,150.8576 96.9678,150.815 L 96.9678,150.815 z M 98.5078,150.6507 L 98.5078,149.592 C 98.5078,149.5595 98.5127,149.5321 98.5229,149.5098 C 98.5329,149.4875 98.547,149.4703 98.5651,149.4581 C 98.5832,149.4459 98.6034,149.4399 98.6255,149.4399 C 98.6678,149.4399 98.7,149.4581 98.7222,149.4946 C 98.7362,149.519 98.7433,149.5504 98.7433,149.5889 L 98.7433,150.6264 C 98.7433,150.7298 98.7725,150.8099 98.8308,150.8667 C 98.8892,150.9235 98.9718,150.9519 99.0784,150.9519 C 99.3119,150.9519 99.4287,150.8226 99.4287,150.5645 L 99.4287,149.6138 C 99.4287,149.4977 99.471,149.4399 99.5555,149.4399 C 99.5867,149.4399 99.6119,149.4485 99.6314,149.4657 C 99.6511,149.483 99.6632,149.5048 99.6672,149.5311 L 99.6672,149.5925 L 99.6672,151.0214 C 99.6672,151.0787 99.6491,151.1193 99.6124,151.1436 C 99.5896,151.1598 99.563,151.1679 99.5329,151.1679 C 99.4901,151.1679 99.4603,151.1527 99.4438,151.1223 L 99.4408,151.1132 L 99.4347,151.0949 L 99.4287,151.0736 L 99.4287,151.0584 L 99.4287,151.0371 L 99.4287,151.0158 L 99.3954,151.0615 L 99.3864,151.0706 L 99.3713,151.0797 C 99.2948,151.1385 99.1891,151.1679 99.0542,151.1679 C 98.9838,151.1679 98.9224,151.1608 98.87,151.1466 C 98.8177,151.1324 98.7694,151.1101 98.7251,151.0797 C 98.6507,151.029 98.5958,150.9692 98.5606,150.9002 C 98.5254,150.8312 98.5078,150.7481 98.5078,150.6507 L 98.5078,150.6507 z M 100.0598,151.5239 L 100.0598,149.5798 C 100.0598,149.5392 100.0693,149.5032 100.0884,149.4718 C 100.1075,149.4404 100.1383,149.4246 100.1805,149.4246 C 100.2188,149.4246 100.2489,149.4388 100.2711,149.4672 C 100.2832,149.4814 100.2902,149.4966 100.2922,149.5129 L 100.3012,149.525 L 100.3012,149.5494 L 100.3012,149.5768 L 100.3012,149.5981 C 100.3355,149.5479 100.3863,149.5063 100.4538,149.4733 C 100.5212,149.4409 100.5992,149.4246 100.6878,149.4246 C 100.9092,149.4246 101.0697,149.5027 101.1693,149.6584 C 101.269,149.8141 101.3188,150.0696 101.3188,150.4261 C 101.3188,150.6685 101.266,150.8505 101.1598,150.9727 C 101.0536,151.0949 100.9046,151.1558 100.7124,151.1558 C 100.5806,151.1558 100.4693,151.1243 100.3792,151.0615 L 100.3642,151.0493 L 100.3435,151.0341 L 100.3284,151.0219 L 100.3224,151.0128 L 100.3012,150.9854 L 100.3012,151.0067 L 100.3012,151.028 L 100.3012,151.0858 L 100.3012,151.533 C 100.3012,151.6344 100.264,151.6851 100.1896,151.6851 C 100.103,151.6851 100.0598,151.6314 100.0598,151.5239 L 100.0598,151.5239 z M 100.2922,150.313 C 100.2922,150.5169 100.3179,150.6644 100.3692,150.7547 C 100.4205,150.8454 100.5036,150.8972 100.6183,150.9093 C 100.6545,150.9134 100.6807,150.9154 100.6968,150.9154 C 100.8217,150.9154 100.9148,150.8728 100.9761,150.7871 C 101.0375,150.7014 101.0682,150.566 101.0682,150.3805 C 101.0682,150.1361 101.0471,149.9637 101.0053,149.8638 C 100.9635,149.7639 100.8856,149.6995 100.7718,149.6711 C 100.7557,149.669 100.7406,149.666 100.7265,149.6619 C 100.715,149.6599 100.6988,149.6589 100.6787,149.6589 C 100.6647,149.6589 100.65,149.6599 100.6339,149.6619 C 100.6278,149.6619 100.6118,149.665 100.5861,149.6711 C 100.4839,149.6954 100.411,149.7456 100.3672,149.8212 C 100.3235,149.8962 100.3012,150.0255 100.3012,150.2091 L 100.2922,150.313 L 100.2922,150.313 z M 101.645,151.5239 L 101.645,149.5798 C 101.645,149.5392 101.6545,149.5032 101.6737,149.4718 C 101.6927,149.4404 101.7235,149.4246 101.7658,149.4246 C 101.804,149.4246 101.8342,149.4388 101.8563,149.4672 C 101.8684,149.4814 101.8754,149.4966 101.8774,149.5129 L 101.8865,149.525 L 101.8865,149.5494 L 101.8865,149.5768 L 101.8865,149.5981 C 101.9207,149.5479 101.9715,149.5063 102.039,149.4733 C 102.1064,149.4409 102.1844,149.4246 102.273,149.4246 C 102.4944,149.4246 102.6549,149.5027 102.7546,149.6584 C 102.8542,149.8141 102.904,150.0696 102.904,150.4261 C 102.904,150.6685 102.8512,150.8505 102.745,150.9727 C 102.6388,151.0949 102.4899,151.1558 102.2976,151.1558 C 102.1658,151.1558 102.0546,151.1243 101.9645,151.0615 L 101.9494,151.0493 L 101.9287,151.0341 L 101.9137,151.0219 L 101.9076,151.0128 L 101.8865,150.9854 L 101.8865,151.0067 L 101.8865,151.028 L 101.8865,151.0858 L 101.8865,151.533 C 101.8865,151.6344 101.8492,151.6851 101.7748,151.6851 C 101.6883,151.6851 101.645,151.6314 101.645,151.5239 L 101.645,151.5239 z M 101.8774,150.313 C 101.8774,150.5169 101.9031,150.6644 101.9544,150.7547 C 102.0058,150.8454 102.0888,150.8972 102.2035,150.9093 C 102.2398,150.9134 102.266,150.9154 102.282,150.9154 C 102.4069,150.9154 102.5,150.8728 102.5613,150.7871 C 102.6228,150.7014 102.6534,150.566 102.6534,150.3805 C 102.6534,150.1361 102.6323,149.9637 102.5905,149.8638 C 102.5487,149.7639 102.4708,149.6995 102.3571,149.6711 C 102.3409,149.669 102.3258,149.666 102.3117,149.6619 C 102.3002,149.6599 102.284,149.6589 102.2639,149.6589 C 102.2499,149.6589 102.2352,149.6599 102.2191,149.6619 C 102.2131,149.6619 102.197,149.665 102.1713,149.6711 C 102.0692,149.6954 101.9962,149.7456 101.9525,149.8212 C 101.9087,149.8962 101.8865,150.0255 101.8865,150.2091 L 101.8774,150.313 L 101.8774,150.313 z M 103.1577,150.3039 C 103.1577,150.0281 103.196,149.8278 103.2724,149.703 C 103.3489,149.5783 103.4777,149.4997 103.659,149.4672 C 103.6791,149.4652 103.6992,149.4627 103.7193,149.4596 C 103.7395,149.4566 103.7626,149.4551 103.7888,149.4551 C 103.823,149.4551 103.8507,149.4571 103.8718,149.4611 C 103.893,149.4652 103.9086,149.4672 103.9186,149.4672 C 104.1078,149.5017 104.2377,149.5925 104.3081,149.7395 C 104.3786,149.8866 104.4138,150.1345 104.4138,150.4834 C 104.4138,150.6842 104.373,150.8363 104.2915,150.9398 C 104.21,151.0432 104.0857,151.1101 103.9186,151.1406 C 103.8804,151.1487 103.8371,151.1527 103.7888,151.1527 C 103.7626,151.1527 103.7365,151.1527 103.7103,151.1527 C 103.6862,151.1466 103.669,151.1426 103.659,151.1406 C 103.4777,151.1081 103.3489,151.03 103.2724,150.9063 C 103.196,150.7826 103.1577,150.5818 103.1577,150.3039 z M 103.3963,150.3039 L 103.3963,150.4043 C 103.3963,150.595 103.4284,150.7314 103.4934,150.8135 C 103.5578,150.8956 103.6559,150.9367 103.7873,150.9367 C 103.9186,150.9367 104.0167,150.8956 104.0812,150.8135 C 104.1461,150.7314 104.1783,150.595 104.1783,150.4043 L 104.1783,150.2005 C 104.1783,150.0118 104.1461,149.8764 104.0812,149.7943 C 104.0167,149.7121 103.9186,149.6711 103.7873,149.6711 C 103.6559,149.6711 103.5578,149.7121 103.4934,149.7943 C 103.4284,149.8764 103.3963,150.0118 103.3963,150.2005 L 103.3963,150.3039 z M 104.7399,151.0219 L 104.7399,149.5798 C 104.7399,149.4804 104.7776,149.4307 104.8531,149.4307 C 104.8888,149.4267 104.9181,149.4368 104.9412,149.4611 C 104.9638,149.4855 104.9754,149.521 104.9754,149.5676 L 104.9754,149.5981 L 104.9754,149.6102 C 104.9955,149.5717 105.0253,149.5387 105.065,149.5113 C 105.1043,149.484 105.1455,149.4657 105.1877,149.4566 C 105.2305,149.4475 105.2668,149.4429 105.297,149.4429 C 105.309,149.4429 105.3252,149.4449 105.3458,149.449 C 105.4222,149.4611 105.4802,149.4835 105.5184,149.5159 C 105.5571,149.5484 105.5763,149.5828 105.5763,149.6194 C 105.5763,149.6518 105.5657,149.6787 105.5446,149.7 C 105.5235,149.7213 105.4988,149.7319 105.4706,149.7319 C 105.4625,149.7319 105.4525,149.7299 105.4404,149.7258 L 105.3588,149.6954 C 105.3287,149.6832 105.3005,149.6772 105.2744,149.6772 C 105.2662,149.6772 105.2482,149.6792 105.22,149.6832 C 105.1374,149.6954 105.0761,149.7309 105.0358,149.7897 C 104.9955,149.8485 104.9754,149.9368 104.9754,150.0544 L 104.9754,151.0249 C 104.9754,151.0797 104.9548,151.1193 104.9135,151.1436 C 104.8909,151.1558 104.8693,151.1619 104.8486,151.1619 C 104.7907,151.1619 104.7545,151.1345 104.7399,151.0797 L 104.7399,151.0219 L 104.7399,151.0219 z M 105.5989,149.5007 L 105.6885,149.5007 C 105.7101,149.5007 105.7212,149.4824 105.7212,149.4459 L 105.7212,149.1052 C 105.7212,149.0383 105.7408,148.9946 105.78,148.9744 C 105.8027,148.9622 105.8244,148.9561 105.845,148.9561 C 105.9069,148.9561 105.9452,148.9845 105.9597,149.0413 L 105.9597,149.1021 L 105.9597,149.4399 C 105.9597,149.4581 105.9607,149.4713 105.9627,149.4794 C 105.9668,149.4936 105.9799,149.5007 106.0025,149.5007 L 106.1394,149.5007 C 106.1781,149.5007 106.2113,149.5093 106.2385,149.5266 C 106.2662,149.5438 106.2798,149.5717 106.2798,149.6102 C 106.2798,149.6447 106.2672,149.6716 106.242,149.6909 C 106.2169,149.7101 106.1831,149.7198 106.1409,149.7198 L 106.014,149.7198 C 105.9799,149.7198 105.9617,149.7228 105.9597,149.7289 C 105.9597,149.7451 105.9597,149.7603 105.9597,149.7745 L 105.9597,151.0523 C 105.9597,151.0909 105.9486,151.1213 105.9265,151.1436 C 105.9044,151.1659 105.8742,151.1771 105.8359,151.1771 C 105.7997,151.1771 105.7715,151.1649 105.7513,151.1406 C 105.7313,151.1162 105.7212,151.0838 105.7212,151.0432 L 105.7212,149.7684 L 105.7212,149.7258 L 105.6789,149.7198 L 105.6035,149.7198 C 105.5531,149.7198 105.5169,149.7 105.4947,149.6604 C 105.4866,149.6437 105.4827,149.6249 105.4827,149.6041 C 105.4827,149.5499 105.5063,149.5154 105.5541,149.5007 L 105.5989,149.5007 L 105.5989,149.5007 z M 107.1961,149.5007 L 107.2858,149.5007 C 107.3074,149.5007 107.3184,149.4824 107.3184,149.4459 L 107.3184,149.1052 C 107.3184,149.0383 107.3381,148.9946 107.3773,148.9744 C 107.4,148.9622 107.4216,148.9561 107.4423,148.9561 C 107.5041,148.9561 107.5424,148.9845 107.557,149.0413 L 107.557,149.1021 L 107.557,149.4399 C 107.557,149.4581 107.558,149.4713 107.56,149.4794 C 107.564,149.4936 107.5771,149.5007 107.5998,149.5007 L 107.7366,149.5007 C 107.7753,149.5007 107.8086,149.5093 107.8358,149.5266 C 107.8635,149.5438 107.8771,149.5717 107.8771,149.6102 C 107.8771,149.6447 107.8644,149.6716 107.8392,149.6909 C 107.8141,149.7101 107.7804,149.7198 107.7381,149.7198 L 107.6113,149.7198 C 107.5771,149.7198 107.559,149.7228 107.557,149.7289 C 107.557,149.7451 107.557,149.7603 107.557,149.7745 L 107.557,151.0523 C 107.557,151.0909 107.5459,151.1213 107.5237,151.1436 C 107.5016,151.1659 107.4714,151.1771 107.4331,151.1771 C 107.3969,151.1771 107.3687,151.1649 107.3486,151.1406 C 107.3285,151.1162 107.3184,151.0838 107.3184,151.0432 L 107.3184,149.7684 L 107.3184,149.7258 L 107.2761,149.7198 L 107.2007,149.7198 C 107.1504,149.7198 107.1142,149.7 107.0919,149.6604 C 107.0839,149.6437 107.0799,149.6249 107.0799,149.6041 C 107.0799,149.5499 107.1035,149.5154 107.1514,149.5007 L 107.1961,149.5007 z M 108.0069,151.0219 L 108.0069,149.5798 C 108.0069,149.4804 108.0446,149.4307 108.12,149.4307 C 108.1557,149.4267 108.185,149.4368 108.2081,149.4611 C 108.2308,149.4855 108.2424,149.521 108.2424,149.5676 L 108.2424,149.5981 L 108.2424,149.6102 C 108.2624,149.5717 108.2922,149.5387 108.3319,149.5113 C 108.3712,149.484 108.4125,149.4657 108.4547,149.4566 C 108.4974,149.4475 108.5338,149.4429 108.5639,149.4429 C 108.5759,149.4429 108.5921,149.4449 108.6127,149.449 C 108.6892,149.4611 108.7471,149.4835 108.7853,149.5159 C 108.824,149.5484 108.8432,149.5828 108.8432,149.6194 C 108.8432,149.6518 108.8327,149.6787 108.8115,149.7 C 108.7904,149.7213 108.7657,149.7319 108.7375,149.7319 C 108.7295,149.7319 108.7194,149.7299 108.7073,149.7258 L 108.6258,149.6954 C 108.5956,149.6832 108.5674,149.6772 108.5413,149.6772 C 108.5332,149.6772 108.5151,149.6792 108.4869,149.6832 C 108.4043,149.6954 108.343,149.7309 108.3027,149.7897 C 108.2624,149.8485 108.2424,149.9368 108.2424,150.0544 L 108.2424,151.0249 C 108.2424,151.0797 108.2217,151.1193 108.1804,151.1436 C 108.1578,151.1558 108.1362,151.1619 108.1155,151.1619 C 108.0577,151.1619 108.0215,151.1345 108.0069,151.0797 L 108.0069,151.0219 L 108.0069,151.0219 z"
   class="fil1"
   id="_43823280" />
     <path
   style="fill:#4d485b;fill-rule:nonzero"
   d="M 110.087,149.912 L 110.087,150.9814 C 110.087,151.0976 110.0487,151.1554 109.9722,151.1554 C 109.9018,151.1554 109.8635,151.1204 109.8575,151.0499 L 109.8575,151.022 L 109.8575,151.0032 L 109.8455,151.0154 L 109.8363,151.0245 L 109.8212,151.0367 L 109.7996,151.0519 L 109.7755,151.0702 L 109.7513,151.0854 C 109.6642,151.132 109.5626,151.1554 109.4474,151.1554 C 109.4272,151.1554 109.4112,151.1554 109.3986,151.1554 C 109.3845,151.1554 109.3743,151.1554 109.3684,151.1554 C 109.2426,151.1412 109.1388,151.1011 109.0569,151.0347 C 108.9748,150.9688 108.922,150.8836 108.8974,150.7801 C 108.8833,150.7127 108.8762,150.6579 108.8762,150.6153 C 108.8762,150.4647 108.9315,150.3461 109.0428,150.2599 C 109.154,150.1732 109.3105,150.1301 109.5123,150.1301 L 109.6245,150.1301 L 109.6759,150.1301 L 109.7453,150.1301 L 109.7604,150.1301 L 109.776,150.1301 L 109.8092,150.1301 C 109.8414,150.124 109.8575,150.1037 109.8575,150.0687 L 109.8575,150.0013 L 109.8575,149.9739 C 109.8575,149.7635 109.7539,149.6585 109.5465,149.6585 C 109.5304,149.6585 109.5133,149.6595 109.4951,149.6615 C 109.4771,149.6636 109.463,149.6646 109.453,149.6646 C 109.3945,149.6727 109.3478,149.6879 109.3125,149.7102 C 109.2773,149.7325 109.2345,149.7751 109.1842,149.838 L 109.1631,149.8654 C 109.147,149.8857 109.1218,149.8999 109.0875,149.908 L 109.0362,149.908 C 108.9779,149.8918 108.9487,149.8522 108.9487,149.7893 C 108.9487,149.769 108.9557,149.7447 108.9698,149.7163 C 108.9939,149.6697 109.0403,149.62 109.1087,149.5672 C 109.1872,149.5064 109.2868,149.4668 109.4076,149.4486 C 109.4479,149.4425 109.4861,149.4395 109.5223,149.4395 C 109.5626,149.4395 109.6008,149.4425 109.637,149.4486 C 109.7901,149.4729 109.9033,149.5241 109.9768,149.6027 C 110.0502,149.6808 110.087,149.7838 110.087,149.912 L 110.087,149.912 z M 109.8514,150.3339 L 109.8334,150.3339 L 109.8212,150.3339 L 109.7665,150.3339 L 109.7211,150.3339 L 109.6603,150.3339 L 109.5208,150.3339 C 109.3794,150.3339 109.2778,150.3583 109.2164,150.4074 C 109.1545,150.4566 109.1238,150.5327 109.1238,150.6351 C 109.1238,150.809 109.2219,150.9084 109.4177,150.9333 C 109.4323,150.9353 109.4534,150.9363 109.4816,150.9363 C 109.5098,150.9363 109.5309,150.9343 109.545,150.9302 C 109.7534,150.8952 109.8575,150.7675 109.8575,150.5459 L 109.8575,150.3709 L 109.8514,150.3339 L 109.8514,150.3339 z M 110.407,150.3157 L 110.407,150.1149 C 110.407,149.908 110.4644,149.7427 110.5792,149.619 C 110.6939,149.4952 110.8368,149.4334 111.0079,149.4334 C 111.0602,149.4334 111.1071,149.4374 111.1482,149.4455 C 111.1895,149.4537 111.2364,149.4699 111.2887,149.4942 C 111.3813,149.5348 111.4527,149.5855 111.503,149.6463 C 111.5474,149.6991 111.5695,149.7498 111.5695,149.7985 C 111.5695,149.8066 111.5675,149.8187 111.5635,149.835 C 111.5474,149.8836 111.5132,149.908 111.4608,149.908 C 111.4488,149.908 111.4352,149.906 111.4201,149.9019 C 111.405,149.8978 111.3883,149.8877 111.3703,149.8715 L 111.3219,149.8137 L 111.2857,149.7711 C 111.2092,149.696 111.1236,149.6585 111.0291,149.6585 C 111.0089,149.6585 110.9938,149.6595 110.9837,149.6615 C 110.873,149.6757 110.7895,149.7229 110.7331,149.803 C 110.6767,149.8831 110.6485,150.0043 110.6485,150.1666 C 110.6485,150.4424 110.6738,150.6346 110.7241,150.7431 C 110.7744,150.8516 110.864,150.913 110.9928,150.9272 C 111.0029,150.9292 111.0189,150.9302 111.0411,150.9302 C 111.0692,150.9302 111.1005,150.9252 111.1347,150.915 C 111.1971,150.8968 111.2444,150.8704 111.2766,150.8359 C 111.3088,150.8014 111.3411,150.7436 111.3732,150.6625 L 111.3914,150.6138 C 111.3973,150.5935 111.4109,150.5763 111.4321,150.5621 C 111.4532,150.5479 111.4739,150.5408 111.494,150.5408 C 111.5343,150.5408 111.5635,150.554 111.5815,150.5804 C 111.5997,150.6067 111.6087,150.6371 111.6087,150.6716 C 111.6087,150.7041 111.6022,150.7386 111.5891,150.7751 C 111.5761,150.8116 111.5549,150.8532 111.5247,150.8998 C 111.4165,151.0682 111.262,151.1523 111.0617,151.1523 C 110.8378,151.1523 110.6723,151.0864 110.5661,150.9546 C 110.4599,150.8227 110.407,150.6098 110.407,150.3157 L 110.407,150.3157 z M 111.8957,151.024 L 111.8957,149.0475 C 111.8957,148.9719 111.9157,148.9222 111.956,148.8979 C 111.9781,148.8857 112.0012,148.8797 112.0255,148.8797 C 112.0858,148.8797 112.121,148.908 112.1312,148.9648 L 112.1312,149.0318 L 112.1312,150.0723 L 112.1312,150.1483 L 112.1854,150.0966 L 112.7682,149.4881 C 112.8005,149.4537 112.8357,149.4364 112.8739,149.4364 C 112.9101,149.4364 112.9383,149.4491 112.9585,149.4744 C 112.9786,149.4998 112.9886,149.5257 112.9886,149.552 C 112.9886,149.5906 112.9675,149.6311 112.9252,149.6737 L 112.497,150.1032 L 112.4632,150.1397 L 112.4844,150.1757 L 113.0158,150.9394 C 113.0279,150.9556 113.037,150.9738 113.043,150.9941 C 113.0491,151.0144 113.052,151.0306 113.052,151.0428 C 113.052,151.0834 113.036,151.1148 113.0037,151.1371 C 112.9836,151.1513 112.9624,151.1584 112.9403,151.1584 C 112.8941,151.1584 112.8503,151.129 112.81,151.0702 L 112.3244,150.3461 C 112.3083,150.3238 112.2982,150.3126 112.2942,150.3126 C 112.2901,150.3126 112.278,150.3228 112.2579,150.343 L 112.1583,150.4445 C 112.1402,150.4647 112.1312,150.4916 112.1312,150.5241 L 112.1312,151.0174 C 112.1312,151.1113 112.0919,151.1584 112.0134,151.1584 C 111.9349,151.1584 111.8957,151.1138 111.8957,151.024 L 111.8957,151.024 z M 113.2393,150.9819 L 113.2393,149.6068 C 113.2393,149.5277 113.2584,149.478 113.2967,149.4577 C 113.3188,149.4455 113.3409,149.4395 113.3631,149.4395 C 113.4234,149.4395 113.4607,149.4678 113.4748,149.5246 L 113.4808,149.5824 L 113.4808,150.985 C 113.4808,151.0621 113.4627,151.1128 113.4265,151.1371 C 113.4064,151.1513 113.3832,151.1584 113.357,151.1584 C 113.3147,151.1584 113.2836,151.1422 113.2634,151.1097 C 113.2554,151.0976 113.2493,151.0823 113.2453,151.0641 C 113.2413,151.0458 113.2393,151.0185 113.2393,150.9819 L 113.2393,150.9819 z M 113.2393,149.1565 L 113.2393,149.0196 C 113.2393,148.9628 113.2599,148.9233 113.3012,148.9009 C 113.3238,148.8888 113.3454,148.8827 113.3661,148.8827 C 113.428,148.8827 113.4662,148.9111 113.4808,148.9679 L 113.4808,149.0135 L 113.4808,149.1626 C 113.4808,149.2011 113.4688,149.2326 113.4446,149.2569 C 113.4204,149.2812 113.3903,149.2934 113.354,149.2934 C 113.2775,149.2934 113.2393,149.2478 113.2393,149.1565 z M 113.8764,151.0245 L 113.8764,149.589 C 113.8764,149.5277 113.8964,149.4851 113.9367,149.4607 C 113.9569,149.4466 113.98,149.4395 114.0062,149.4395 C 114.0504,149.4395 114.0827,149.4597 114.1027,149.5003 L 114.1178,149.5429 L 114.1178,149.6098 C 114.1319,149.587 114.1486,149.5682 114.1677,149.5525 C 114.1868,149.5368 114.2165,149.5196 114.2568,149.4998 C 114.2971,149.48 114.3433,149.4653 114.3956,149.4552 C 114.448,149.4445 114.4953,149.4395 114.5375,149.4395 C 114.6945,149.4395 114.8204,149.4891 114.915,149.589 C 115.0096,149.6884 115.0569,149.8172 115.0569,149.9759 L 115.0569,150.9936 C 115.0569,151.0671 115.0388,151.1158 115.0026,151.1402 C 114.9825,151.1544 114.9593,151.1615 114.9331,151.1615 C 114.8828,151.1615 114.8486,151.1402 114.8305,151.0976 C 114.8224,151.0813 114.8184,151.0499 114.8184,151.0027 L 114.8184,150.0241 C 114.8184,149.9125 114.7983,149.8294 114.7575,149.7741 C 114.7173,149.7194 114.6488,149.6839 114.5516,149.6676 C 114.523,149.6636 114.5008,149.6615 114.4847,149.6615 C 114.4726,149.6615 114.4606,149.6615 114.4485,149.6615 C 114.4324,149.6656 114.4203,149.6676 114.4123,149.6676 C 114.216,149.7062 114.1178,149.8233 114.1178,150.019 L 114.1178,151.0088 C 114.1178,151.0818 114.0942,151.129 114.0464,151.1493 C 114.0303,151.1574 114.0127,151.1615 113.9926,151.1615 C 113.9508,151.1615 113.9191,151.1442 113.8969,151.1097 C 113.8834,151.0854 113.8764,151.057 113.8764,151.0245 L 113.8764,151.0245 z M 116.3734,149.619 L 116.3704,149.5885 C 116.3704,149.548 116.3809,149.516 116.402,149.4927 C 116.4232,149.4694 116.4509,149.4577 116.4851,149.4577 C 116.5072,149.4577 116.5274,149.4618 116.5455,149.4699 C 116.5898,149.4881 116.6119,149.5328 116.6119,149.6037 L 116.6119,151.128 C 116.6119,151.3044 116.5601,151.4434 116.4569,151.5448 C 116.3538,151.6462 116.2053,151.6969 116.011,151.6969 C 115.9668,151.6969 115.92,151.6939 115.8717,151.6878 C 115.7197,151.6695 115.5995,151.6138 115.5103,151.5205 C 115.4681,151.4779 115.4364,151.4358 115.4148,151.3942 C 115.3936,151.3526 115.383,151.3166 115.383,151.2862 C 115.383,151.27 115.3871,151.2522 115.3956,151.2329 C 115.4041,151.2137 115.4182,151.1975 115.4379,151.1843 C 115.458,151.1711 115.4802,151.1645 115.5053,151.1645 C 115.5179,151.1645 115.535,151.1686 115.5572,151.1767 C 115.5793,151.1848 115.6014,151.203 115.6246,151.2314 L 115.6246,151.2375 L 115.6673,151.3105 C 115.7096,151.3835 115.7776,151.4332 115.8712,151.4596 C 115.8994,151.4657 115.9266,151.4708 115.9517,151.4748 C 115.9774,151.4789 116.001,151.4809 116.0231,151.4809 C 116.1349,151.4809 116.2224,151.4479 116.2863,151.382 C 116.3502,151.3161 116.3825,151.2264 116.3825,151.1128 L 116.3825,151.0732 L 116.3825,151.0519 L 116.3704,150.9759 C 116.3563,151.0002 116.3381,151.022 116.3165,151.0413 C 116.2944,151.0605 116.2632,151.0803 116.2234,151.1006 C 116.1636,151.129 116.086,151.1432 115.9925,151.1432 C 115.9623,151.1432 115.932,151.1432 115.9023,151.1432 C 115.8761,151.1371 115.8571,151.1331 115.845,151.131 C 115.6749,151.0986 115.5556,151.0093 115.4867,150.8638 C 115.4177,150.7183 115.383,150.4825 115.383,150.157 C 115.383,149.9369 115.4374,149.7655 115.5461,149.6423 C 115.6547,149.5191 115.7967,149.4577 115.9718,149.4577 C 116.008,149.4577 116.0549,149.4618 116.1122,149.4704 C 116.1696,149.479 116.2219,149.4962 116.2693,149.5226 C 116.3165,149.549 116.3512,149.5809 116.3734,149.619 L 116.3734,149.619 z M 115.6246,150.2974 L 115.6246,150.4044 C 115.6246,150.5859 115.6542,150.7173 115.7142,150.7989 C 115.774,150.8805 115.8671,150.9211 115.993,150.9211 C 116.1188,150.9211 116.2149,150.88 116.2818,150.7974 C 116.3487,150.7147 116.3825,150.5839 116.3825,150.4044 L 116.3825,150.1782 C 116.3825,150.0211 116.3583,149.906 116.3104,149.8324 C 116.2627,149.7594 116.1867,149.7123 116.0831,149.692 C 116.0503,149.6839 116.0156,149.6798 115.9789,149.6798 C 115.8691,149.6798 115.7826,149.7229 115.7191,149.8096 C 115.6563,149.8963 115.6246,150.0261 115.6246,150.1995 L 115.6246,150.2974 L 115.6246,150.2974 z M 117.8801,150.9819 L 117.8801,149.6068 C 117.8801,149.5277 117.8991,149.478 117.9375,149.4577 C 117.9596,149.4455 117.9817,149.4395 118.0038,149.4395 C 118.0642,149.4395 118.1015,149.4678 118.1156,149.5246 L 118.1216,149.5824 L 118.1216,150.985 C 118.1216,151.0621 118.1035,151.1128 118.0673,151.1371 C 118.0471,151.1513 118.024,151.1584 117.9978,151.1584 C 117.9555,151.1584 117.9244,151.1422 117.9042,151.1097 C 117.8962,151.0976 117.8901,151.0823 117.886,151.0641 C 117.8821,151.0458 117.8801,151.0185 117.8801,150.9819 L 117.8801,150.9819 z M 117.8801,149.1565 L 117.8801,149.0196 C 117.8801,148.9628 117.9006,148.9233 117.9419,148.9009 C 117.9645,148.8888 117.9862,148.8827 118.0068,148.8827 C 118.0688,148.8827 118.107,148.9111 118.1216,148.9679 L 118.1216,149.0135 L 118.1216,149.1626 C 118.1216,149.2011 118.1095,149.2326 118.0853,149.2569 C 118.0612,149.2812 118.031,149.2934 117.9948,149.2934 C 117.9183,149.2934 117.8801,149.2478 117.8801,149.1565 z M 118.5171,151.0245 L 118.5171,149.589 C 118.5171,149.5277 118.5372,149.4851 118.5775,149.4607 C 118.5976,149.4466 118.6208,149.4395 118.647,149.4395 C 118.6912,149.4395 118.7235,149.4597 118.7435,149.5003 L 118.7586,149.5429 L 118.7586,149.6098 C 118.7727,149.587 118.7894,149.5682 118.8084,149.5525 C 118.8276,149.5368 118.8573,149.5196 118.8975,149.4998 C 118.9378,149.48 118.9841,149.4653 119.0364,149.4552 C 119.0888,149.4445 119.136,149.4395 119.1783,149.4395 C 119.3353,149.4395 119.4612,149.4891 119.5557,149.589 C 119.6504,149.6884 119.6977,149.8172 119.6977,149.9759 L 119.6977,150.9936 C 119.6977,151.0671 119.6796,151.1158 119.6434,151.1402 C 119.6232,151.1544 119.6001,151.1615 119.5739,151.1615 C 119.5236,151.1615 119.4893,151.1402 119.4713,151.0976 C 119.4631,151.0813 119.4592,151.0499 119.4592,151.0027 L 119.4592,150.0241 C 119.4592,149.9125 119.439,149.8294 119.3982,149.7741 C 119.358,149.7194 119.2896,149.6839 119.1924,149.6676 C 119.1637,149.6636 119.1416,149.6615 119.1255,149.6615 C 119.1134,149.6615 119.1014,149.6615 119.0893,149.6615 C 119.0732,149.6656 119.0611,149.6676 119.0531,149.6676 C 118.8568,149.7062 118.7586,149.8233 118.7586,150.019 L 118.7586,151.0088 C 118.7586,151.0818 118.735,151.129 118.6871,151.1493 C 118.6711,151.1574 118.6535,151.1615 118.6334,151.1615 C 118.5916,151.1615 118.5599,151.1442 118.5377,151.1097 C 118.5242,151.0854 118.5171,151.057 118.5171,151.0245 L 118.5171,151.0245 z M 121.0625,149.549 L 121.4374,150.7842 L 121.8355,149.552 C 121.8555,149.4973 121.8918,149.4648 121.9441,149.4547 C 121.9804,149.4486 122.0115,149.4577 122.0377,149.482 C 122.0644,149.5064 122.0775,149.5358 122.0775,149.5703 L 122.0654,149.6342 L 121.4943,151.3197 L 121.4761,151.3714 C 121.4399,151.4647 121.4007,151.5336 121.3584,151.5783 C 121.3161,151.6229 121.2617,151.6533 121.1953,151.6695 C 121.1772,151.6756 121.1586,151.6797 121.1395,151.6817 C 121.1203,151.6837 121.0997,151.6847 121.0775,151.6847 C 121.0172,151.6847 120.9679,151.6721 120.9296,151.6467 C 120.8914,151.6214 120.8702,151.5904 120.8663,151.5539 C 120.8561,151.4768 120.8894,151.4383 120.9659,151.4383 C 120.9739,151.4383 120.99,151.4408 121.0141,151.4459 C 121.0383,151.451 121.0605,151.4535 121.0806,151.4535 C 121.1711,151.4535 121.2376,151.3856 121.2799,151.2497 C 121.3,151.1888 121.3101,151.1503 121.3101,151.1341 C 121.3101,151.13 121.306,151.1138 121.298,151.0854 L 120.833,149.6281 C 120.827,149.6037 120.824,149.5814 120.824,149.5611 C 120.824,149.5328 120.832,149.5074 120.8481,149.4851 C 120.8743,149.4567 120.9064,149.4425 120.9448,149.4425 C 120.9729,149.4425 120.9976,149.4521 121.0187,149.4714 C 121.0398,149.4907 121.0544,149.5165 121.0625,149.549 L 121.0625,149.549 z M 122.2098,150.3035 C 122.2098,150.0277 122.2481,149.8274 122.3246,149.7026 C 122.4011,149.5779 122.5299,149.4993 122.7111,149.4668 C 122.7313,149.4648 122.7513,149.4623 122.7714,149.4592 C 122.7916,149.4562 122.8147,149.4547 122.8409,149.4547 C 122.8752,149.4547 122.9028,149.4567 122.924,149.4607 C 122.9451,149.4648 122.9607,149.4668 122.9707,149.4668 C 123.16,149.5013 123.2898,149.5921 123.3603,149.7391 C 123.4307,149.8862 123.466,150.1341 123.466,150.483 C 123.466,150.6838 123.4252,150.8359 123.3437,150.9394 C 123.2621,151.0428 123.1379,151.1097 122.9707,151.1402 C 122.9325,151.1483 122.8893,151.1523 122.8409,151.1523 C 122.8147,151.1523 122.7886,151.1523 122.7624,151.1523 C 122.7383,151.1462 122.7211,151.1422 122.7111,151.1402 C 122.5299,151.1077 122.4011,151.0296 122.3246,150.9059 C 122.2481,150.7822 122.2098,150.5814 122.2098,150.3035 z M 122.4484,150.3035 L 122.4484,150.4039 C 122.4484,150.5946 122.4806,150.731 122.5456,150.8131 C 122.61,150.8952 122.708,150.9363 122.8394,150.9363 C 122.9707,150.9363 123.0689,150.8952 123.1333,150.8131 C 123.1982,150.731 123.2305,150.5946 123.2305,150.4039 L 123.2305,150.2001 C 123.2305,150.0114 123.1982,149.876 123.1333,149.7939 C 123.0689,149.7117 122.9707,149.6707 122.8394,149.6707 C 122.708,149.6707 122.61,149.7117 122.5456,149.7939 C 122.4806,149.876 122.4484,150.0114 122.4484,150.2001 L 122.4484,150.3035 z M 123.7921,150.6503 L 123.7921,149.5916 C 123.7921,149.5591 123.797,149.5317 123.8072,149.5094 C 123.8172,149.4871 123.8313,149.4699 123.8494,149.4577 C 123.8675,149.4455 123.8877,149.4395 123.9098,149.4395 C 123.9521,149.4395 123.9843,149.4577 124.0064,149.4942 C 124.0205,149.5186 124.0276,149.55 124.0276,149.5885 L 124.0276,150.626 C 124.0276,150.7294 124.0568,150.8095 124.1151,150.8663 C 124.1735,150.9231 124.256,150.9515 124.3627,150.9515 C 124.5962,150.9515 124.713,150.8222 124.713,150.5641 L 124.713,149.6134 C 124.713,149.4973 124.7552,149.4395 124.8398,149.4395 C 124.871,149.4395 124.8962,149.4481 124.9157,149.4653 C 124.9354,149.4826 124.9475,149.5044 124.9515,149.5307 L 124.9515,149.5921 L 124.9515,151.021 C 124.9515,151.0783 124.9334,151.1189 124.8967,151.1432 C 124.8739,151.1594 124.8473,151.1675 124.8172,151.1675 C 124.7744,151.1675 124.7446,151.1523 124.7281,151.1219 L 124.7251,151.1128 L 124.719,151.0945 L 124.713,151.0732 L 124.713,151.058 L 124.713,151.0367 L 124.713,151.0154 L 124.6797,151.0611 L 124.6707,151.0702 L 124.6556,151.0793 C 124.5791,151.1381 124.4734,151.1675 124.3385,151.1675 C 124.2681,151.1675 124.2067,151.1604 124.1543,151.1462 C 124.102,151.132 124.0537,151.1097 124.0094,151.0793 C 123.935,151.0286 123.8801,150.9688 123.8449,150.8998 C 123.8096,150.8308 123.7921,150.7477 123.7921,150.6503 L 123.7921,150.6503 z M 125.3441,151.0215 L 125.3441,149.5794 C 125.3441,149.48 125.3818,149.4303 125.4572,149.4303 C 125.4929,149.4263 125.5222,149.4364 125.5453,149.4607 C 125.568,149.4851 125.5796,149.5206 125.5796,149.5672 L 125.5796,149.5977 L 125.5796,149.6098 C 125.5996,149.5713 125.6294,149.5383 125.6691,149.5109 C 125.7084,149.4836 125.7497,149.4653 125.7919,149.4562 C 125.8346,149.4471 125.871,149.4425 125.9011,149.4425 C 125.9131,149.4425 125.9293,149.4445 125.95,149.4486 C 126.0264,149.4607 126.0843,149.4831 126.1225,149.5155 C 126.1612,149.548 126.1804,149.5824 126.1804,149.619 C 126.1804,149.6514 126.1699,149.6783 126.1487,149.6996 C 126.1276,149.7209 126.1029,149.7315 126.0747,149.7315 C 126.0667,149.7315 126.0566,149.7295 126.0445,149.7254 L 125.963,149.695 C 125.9328,149.6828 125.9046,149.6768 125.8785,149.6768 C 125.8704,149.6768 125.8523,149.6788 125.8241,149.6828 C 125.7415,149.695 125.6802,149.7305 125.6399,149.7893 C 125.5996,149.8481 125.5796,149.9364 125.5796,150.054 L 125.5796,151.0245 C 125.5796,151.0793 125.5589,151.1189 125.5176,151.1432 C 125.495,151.1554 125.4734,151.1615 125.4527,151.1615 C 125.3949,151.1615 125.3587,151.1341 125.3441,151.0793 L 125.3441,151.0215 L 125.3441,151.0215 z M 127.1678,151.0088 L 127.1678,149.0475 C 127.1678,148.9354 127.207,148.8797 127.2855,148.8797 C 127.3535,148.8797 127.3927,148.908 127.4033,148.9648 L 127.4033,149.0348 L 127.4033,149.5216 L 127.4033,149.5642 L 127.4033,149.5885 L 127.4033,149.6159 L 127.4213,149.5916 L 127.4425,149.5672 L 127.4515,149.5611 L 127.4697,149.5429 C 127.5482,149.4699 127.6549,149.4334 127.7897,149.4334 C 127.8119,149.4334 127.836,149.4344 127.8622,149.4364 C 127.8884,149.4384 127.9135,149.4425 127.9377,149.4486 C 128.1047,149.4831 128.2225,149.5733 128.2909,149.7194 C 128.3594,149.8654 128.3936,150.1017 128.3936,150.4282 C 128.3936,150.6595 128.3398,150.8384 128.2326,150.9652 C 128.1254,151.092 127.982,151.1554 127.8038,151.1554 C 127.7696,151.1554 127.7314,151.1518 127.6891,151.1447 C 127.6473,151.1376 127.606,151.1265 127.5657,151.1113 C 127.5256,151.096 127.4923,151.0783 127.4667,151.058 L 127.4576,151.0489 L 127.4395,151.0306 L 127.4184,151.0093 L 127.4033,150.9941 L 127.4033,151.0098 L 127.4033,151.0382 L 127.4033,151.0666 C 127.3992,151.092 127.3861,151.1133 127.3645,151.13 C 127.3428,151.1467 127.3177,151.1554 127.2886,151.1554 C 127.2699,151.1554 127.2493,151.1493 127.2266,151.1371 C 127.1873,151.1168 127.1678,151.0742 127.1678,151.0088 L 127.1678,151.0088 z M 127.3942,150.2883 L 127.3942,150.3887 C 127.3942,150.5854 127.4254,150.7244 127.4878,150.8055 C 127.5502,150.8866 127.6498,150.9272 127.7867,150.9272 C 127.9095,150.9272 128.0006,150.8836 128.06,150.7964 C 128.1193,150.7091 128.149,150.5631 128.149,150.3583 L 128.149,150.1727 C 128.149,149.9922 128.1164,149.8618 128.0505,149.7817 C 127.9845,149.7016 127.8904,149.6615 127.7686,149.6615 C 127.6428,149.6615 127.5507,149.7021 127.4918,149.7832 C 127.433,149.8644 127.4033,149.9972 127.4033,150.1818 L 127.3942,150.2883 L 127.3942,150.2883 z M 128.7168,151.0215 L 128.7168,149.5794 C 128.7168,149.48 128.7545,149.4303 128.8299,149.4303 C 128.8657,149.4263 128.8949,149.4364 128.9181,149.4607 C 128.9407,149.4851 128.9523,149.5206 128.9523,149.5672 L 128.9523,149.5977 L 128.9523,149.6098 C 128.9723,149.5713 129.0021,149.5383 129.0418,149.5109 C 129.0811,149.4836 129.1224,149.4653 129.1646,149.4562 C 129.2073,149.4471 129.2437,149.4425 129.2738,149.4425 C 129.2859,149.4425 129.302,149.4445 129.3227,149.4486 C 129.3991,149.4607 129.457,149.4831 129.4953,149.5155 C 129.534,149.548 129.5531,149.5824 129.5531,149.619 C 129.5531,149.6514 129.5426,149.6783 129.5215,149.6996 C 129.5003,149.7209 129.4756,149.7315 129.4474,149.7315 C 129.4394,149.7315 129.4294,149.7295 129.4173,149.7254 L 129.3357,149.695 C 129.3055,149.6828 129.2773,149.6768 129.2512,149.6768 C 129.2431,149.6768 129.225,149.6788 129.1968,149.6828 C 129.1143,149.695 129.0529,149.7305 129.0126,149.7893 C 128.9723,149.8481 128.9523,149.9364 128.9523,150.054 L 128.9523,151.0245 C 128.9523,151.0793 128.9316,151.1189 128.8904,151.1432 C 128.8677,151.1554 128.8461,151.1615 128.8255,151.1615 C 128.7676,151.1615 128.7314,151.1341 128.7168,151.0793 L 128.7168,151.0215 L 128.7168,151.0215 z M 129.5923,150.3035 C 129.5923,150.0277 129.6306,149.8274 129.707,149.7026 C 129.7836,149.5779 129.9124,149.4993 130.0936,149.4668 C 130.1137,149.4648 130.1338,149.4623 130.1539,149.4592 C 130.1741,149.4562 130.1972,149.4547 130.2234,149.4547 C 130.2577,149.4547 130.2853,149.4567 130.3065,149.4607 C 130.3276,149.4648 130.3432,149.4668 130.3532,149.4668 C 130.5425,149.5013 130.6723,149.5921 130.7428,149.7391 C 130.8132,149.8862 130.8485,150.1341 130.8485,150.483 C 130.8485,150.6838 130.8077,150.8359 130.7262,150.9394 C 130.6446,151.0428 130.5204,151.1097 130.3532,151.1402 C 130.315,151.1483 130.2717,151.1523 130.2234,151.1523 C 130.1972,151.1523 130.1711,151.1523 130.1449,151.1523 C 130.1208,151.1462 130.1036,151.1422 130.0936,151.1402 C 129.9124,151.1077 129.7836,151.0296 129.707,150.9059 C 129.6306,150.7822 129.5923,150.5814 129.5923,150.3035 L 129.5923,150.3035 z M 129.8309,150.3035 L 129.8309,150.4039 C 129.8309,150.5946 129.8631,150.731 129.9281,150.8131 C 129.9925,150.8952 130.0905,150.9363 130.2219,150.9363 C 130.3532,150.9363 130.4514,150.8952 130.5158,150.8131 C 130.5807,150.731 130.6129,150.5946 130.6129,150.4039 L 130.6129,150.2001 C 130.6129,150.0114 130.5807,149.876 130.5158,149.7939 C 130.4514,149.7117 130.3532,149.6707 130.2219,149.6707 C 130.0905,149.6707 129.9925,149.7117 129.9281,149.7939 C 129.8631,149.876 129.8309,150.0114 129.8309,150.2001 L 129.8309,150.3035 z M 131.2983,149.5703 L 131.6023,150.7872 L 131.9108,149.6007 C 131.9349,149.5094 131.9691,149.4582 132.0134,149.4471 C 132.0577,149.4359 132.0853,149.4303 132.0955,149.4303 C 132.1759,149.4303 132.2313,149.4871 132.2615,149.6007 L 132.5735,150.7888 L 132.8744,149.5703 C 132.8986,149.4831 132.9398,149.4395 132.9983,149.4395 C 133.0043,149.4395 133.0173,149.4415 133.0375,149.4455 C 133.0919,149.4638 133.1191,149.5013 133.1191,149.5581 C 133.1191,149.5784 133.114,149.6108 133.1039,149.6555 L 132.7597,150.9181 L 132.7446,150.9759 L 132.7265,151.0367 C 132.7004,151.1178 132.65,151.1584 132.5755,151.1584 C 132.5574,151.1584 132.5373,151.1554 132.5152,151.1493 C 132.4829,151.1371 132.4573,151.1168 132.4382,151.0884 C 132.419,151.06 132.3994,151.0093 132.3793,150.9363 L 132.0864,149.7985 L 131.7965,150.9363 C 131.7764,151.0093 131.7572,151.06 131.7392,151.0884 C 131.721,151.1168 131.6949,151.1371 131.6607,151.1493 C 131.6385,151.1554 131.6174,151.1584 131.5973,151.1584 C 131.5207,151.1584 131.4714,151.1178 131.4493,151.0367 L 131.4327,150.9754 L 131.4136,150.9181 L 131.0719,149.6555 C 131.0618,149.6108 131.0568,149.5774 131.0568,149.5551 C 131.0568,149.5003 131.083,149.4638 131.1353,149.4455 C 131.1433,149.4415 131.1504,149.4395 131.1564,149.4395 C 131.1664,149.4395 131.1735,149.4395 131.1775,149.4395 C 131.2379,149.4395 131.2782,149.4831 131.2983,149.5703 L 131.2983,149.5703 z M 133.264,150.8146 C 133.264,150.7315 133.3023,150.6899 133.3787,150.6899 C 133.3847,150.6899 133.3969,150.6919 133.415,150.696 C 133.4331,150.7 133.4487,150.7076 133.4618,150.7188 C 133.4749,150.7299 133.4914,150.7457 133.5116,150.7659 C 133.584,150.8329 133.6635,150.8795 133.7502,150.9059 C 133.8166,150.9241 133.8769,150.9333 133.9313,150.9333 C 134.0239,150.9333 134.0999,150.9145 134.1592,150.877 C 134.2186,150.8395 134.2564,150.7893 134.2725,150.7264 C 134.2805,150.6899 134.2846,150.6645 134.2846,150.6503 C 134.2846,150.5246 134.203,150.4434 134.04,150.4069 L 133.9223,150.3796 L 133.8739,150.3704 L 133.7833,150.3522 C 133.6243,150.3157 133.5081,150.2624 133.4346,150.1924 C 133.3611,150.1225 133.3244,150.0317 133.3244,149.9202 C 133.3244,149.8877 133.3274,149.8532 133.3334,149.8167 C 133.3516,149.7052 133.4129,149.6119 133.5176,149.5368 C 133.6223,149.4618 133.7512,149.4242 133.9041,149.4242 C 133.9202,149.4242 133.9373,149.4242 133.9554,149.4242 C 133.9796,149.4283 134.0017,149.4313 134.0219,149.4334 C 134.042,149.4354 134.0681,149.4405 134.1004,149.4486 C 134.1326,149.4567 134.1638,149.4668 134.194,149.479 C 134.2966,149.5175 134.3711,149.5642 134.4174,149.619 C 134.4577,149.6656 134.4728,149.7112 134.4627,149.7559 C 134.4471,149.8147 134.4108,149.8441 134.3545,149.8441 C 134.3389,149.8441 134.3274,149.8421 134.3198,149.838 L 134.2846,149.8198 L 134.2327,149.7772 C 134.1985,149.7488 134.1668,149.727 134.1386,149.7117 C 134.1099,149.6965 134.0788,149.6839 134.044,149.6737 C 134.04,149.6717 134.0309,149.6692 134.0163,149.6661 C 134.0022,149.6631 133.9872,149.66 133.9711,149.657 C 133.9544,149.6539 133.9283,149.6524 133.8915,149.6524 C 133.8472,149.6524 133.8065,149.6585 133.7697,149.6707 C 133.7335,149.6828 133.6988,149.7011 133.6666,149.7254 C 133.6077,149.7721 133.578,149.8289 133.578,149.8958 C 133.578,149.9688 133.6102,150.0236 133.6746,150.0601 C 133.7008,150.0763 133.7259,150.088 133.7502,150.0951 C 133.7743,150.1022 133.8195,150.1128 133.886,150.127 L 133.9645,150.1453 L 134.055,150.1635 C 134.3671,150.2386 134.5231,150.3907 134.5231,150.6199 C 134.5231,150.6706 134.516,150.7233 134.5019,150.7781 C 134.4738,150.8917 134.4074,150.984 134.3027,151.055 C 134.198,151.126 134.0671,151.1615 133.9101,151.1615 C 133.8679,151.1615 133.8175,151.1579 133.7592,151.1508 C 133.7008,151.1437 133.6394,151.126 133.575,151.0976 C 133.4683,151.0489 133.3898,151.0002 133.3395,150.9515 C 133.2892,150.9028 133.264,150.8572 133.264,150.8146 L 133.264,150.8146 z M 135.8274,150.3735 L 135.0152,150.3735 C 134.9972,150.3735 134.987,150.3745 134.9851,150.3765 C 134.981,150.3806 134.979,150.3938 134.979,150.4161 C 134.979,150.4384 134.979,150.4602 134.979,150.4815 C 134.979,150.5028 134.979,150.5246 134.979,150.5469 C 134.979,150.6463 135.0067,150.7284 135.0626,150.7933 C 135.1179,150.8582 135.1889,150.8998 135.2759,150.9181 C 135.3102,150.9241 135.3433,150.9272 135.3756,150.9272 C 135.5149,150.9272 135.6262,150.8582 135.7092,150.7203 C 135.7353,150.6777 135.7555,150.6498 135.7696,150.6366 C 135.7837,150.6235 135.8028,150.6148 135.827,150.6108 C 135.8653,150.6006 135.8974,150.6087 135.9226,150.6351 C 135.9477,150.6615 135.9563,150.696 135.9482,150.7386 C 135.9462,150.767 135.9312,150.8045 135.903,150.8511 C 135.8748,150.8978 135.8425,150.9383 135.8063,150.9728 C 135.7178,151.0621 135.608,151.1168 135.4772,151.1371 C 135.4531,151.1391 135.4299,151.1417 135.4077,151.1447 C 135.3856,151.1478 135.3615,151.1493 135.3353,151.1493 C 134.9328,151.1493 134.7314,150.8613 134.7314,150.2852 C 134.7314,149.9932 134.7843,149.7787 134.89,149.6418 C 134.9956,149.5049 135.1521,149.4364 135.3595,149.4364 C 135.5467,149.4364 135.6916,149.4978 135.7943,149.6205 C 135.8969,149.7432 135.9482,149.9262 135.9482,150.1696 L 135.9482,150.2274 C 135.9482,150.2883 135.9433,150.3268 135.9331,150.343 C 135.9231,150.3593 135.8979,150.3694 135.8577,150.3735 L 135.8274,150.3735 L 135.8274,150.3735 z M 135.6337,150.1605 C 135.6725,150.1605 135.6947,150.1554 135.7006,150.1453 C 135.7067,150.1331 135.7097,150.0976 135.7097,150.0388 L 135.7037,149.981 C 135.6855,149.8755 135.6468,149.7944 135.5885,149.7376 C 135.5301,149.6808 135.4551,149.6524 135.364,149.6524 C 135.3197,149.6524 135.281,149.6575 135.2488,149.6676 C 135.1134,149.7041 135.0283,149.8045 134.9941,149.9688 L 134.9851,150.0297 C 134.9831,150.0459 134.9816,150.0631 134.9805,150.0814 C 134.9795,150.0997 134.979,150.1108 134.979,150.1149 C 134.979,150.1372 134.9831,150.1504 134.9911,150.1544 C 134.9972,150.1585 135.0132,150.1605 135.0399,150.1605 L 135.6337,150.1605 L 135.6337,150.1605 z M 136.2714,151.0215 L 136.2714,149.5794 C 136.2714,149.48 136.3091,149.4303 136.3845,149.4303 C 136.4202,149.4263 136.4495,149.4364 136.4726,149.4607 C 136.4953,149.4851 136.5069,149.5206 136.5069,149.5672 L 136.5069,149.5977 L 136.5069,149.6098 C 136.5269,149.5713 136.5567,149.5383 136.5964,149.5109 C 136.6357,149.4836 136.677,149.4653 136.7192,149.4562 C 136.7619,149.4471 136.7983,149.4425 136.8284,149.4425 C 136.8404,149.4425 136.8566,149.4445 136.8773,149.4486 C 136.9537,149.4607 137.0116,149.4831 137.0498,149.5155 C 137.0885,149.548 137.1077,149.5824 137.1077,149.619 C 137.1077,149.6514 137.0972,149.6783 137.076,149.6996 C 137.0549,149.7209 137.0302,149.7315 137.002,149.7315 C 136.994,149.7315 136.9839,149.7295 136.9718,149.7254 L 136.8903,149.695 C 136.8601,149.6828 136.8319,149.6768 136.8058,149.6768 C 136.7977,149.6768 136.7796,149.6788 136.7514,149.6828 C 136.6688,149.695 136.6075,149.7305 136.5672,149.7893 C 136.5269,149.8481 136.5069,149.9364 136.5069,150.054 L 136.5069,151.0245 C 136.5069,151.0793 136.4862,151.1189 136.4449,151.1432 C 136.4223,151.1554 136.4007,151.1615 136.38,151.1615 C 136.3222,151.1615 136.286,151.1341 136.2714,151.0793 L 136.2714,151.0215 L 136.2714,151.0215 z"
   class="fil1"
   id="_43763312" />
    </g><path
       id="_43761792"
       class="fil2"
       d="M 90.3316,131.038 C 94.9302,131.038 97.9715,134.7673 97.123,139.3659 C 96.2745,143.9646 91.8572,147.6939 87.2586,147.6939 C 82.66,147.6939 79.6186,143.9646 80.4671,139.3659 C 81.3156,134.7673 85.7329,131.038 90.3316,131.038 z M 89.9534,131.1325 C 94.0641,131.1325 96.7828,134.4661 96.0243,138.5769 C 95.2658,142.6876 91.3172,146.0213 87.2064,146.0213 C 83.0957,146.0213 80.377,142.6876 81.1355,138.5769 C 81.894,134.4661 85.8426,131.1325 89.9534,131.1325 z"
       style="fill:#203994;fill-opacity:1" /><path
       id="_43675552"
       class="fil2"
       d="M 89.302,147.076 C 89.5077,146.2987 89.5988,145.4204 90.0488,144.7439 C 90.3391,144.3075 90.8185,143.7754 90.6291,143.6758 C 90.0702,143.3817 88.2151,143.2139 87.588,143.1833 C 86.6486,143.1375 85.018,143.4872 84.4966,142.6209 C 83.8521,141.4307 84.637,140.2101 84.957,139.0402 C 85.3732,138.0671 84.9261,136.9989 84.6464,136.0377 C 84.5384,135.4533 84.9307,134.9329 85.031,134.3744 C 85.0337,134.2691 85.2541,133.3093 85.0432,132.9716 C 84.5868,132.2411 84.4959,131.6013 85.2421,130.9592 C 86.0635,130.2525 88.1199,130.9184 87.7709,132.1621 C 87.7079,132.3867 87.6956,132.4774 87.7956,132.6806 C 88.0119,133.0298 87.9442,132.9032 87.6642,133.0095 C 87.5884,133.2937 87.478,133.5858 87.3622,133.857 C 87.1398,134.0113 86.7717,133.8997 86.5249,133.857 C 86.5,134.0434 86.4285,134.1907 86.3778,134.3713 L 86.3722,134.3732 C 87.5609,134.9961 87.9711,136.3455 87.6691,137.733 C 87.5858,138.116 87.4973,138.3616 87.6042,138.6742 C 87.6601,138.8377 88.1934,138.8 88.4778,138.8371 C 89.3509,138.9511 90.1817,139.1694 91.0638,139.1694 C 91.315,139.1694 91.4672,139.7253 91.4672,139.7253 C 91.1649,139.9851 90.6319,139.7847 90.2217,139.7453 C 89.357,139.6623 88.4389,139.6681 87.575,139.7652 L 87.4782,141.0759 C 87.4756,141.1116 87.6647,141.168 87.9417,141.2317 C 89.5788,141.6078 91.115,141.758 92.417,142.8291 C 92.8471,143.1829 91.338,145.0766 90.4997,146.4728 C 90.0415,146.6245 89.7815,147.017 89.302,147.076 L 89.302,147.076 z"
       style="fill:#203994;fill-opacity:1" /><path
       id="_43673984"
       class="fil3"
       d="M 91.0591,141.029 C 91.0846,141.0297 91.1102,141.03 91.136,141.03 C 91.8347,141.03 92.5541,140.8591 93.0776,140.4057 C 93.601,139.9523 93.7736,139.3513 93.8118,138.7144 L 93.9933,135.692 C 93.5117,135.692 92.9255,136.5159 92.902,136.9073 L 92.7802,138.9366 C 92.7458,139.5092 92.2378,139.9713 91.6407,140.0676 C 91.0682,140.16 90.396,140.0808 89.8182,140.0808 C 89.3653,140.0808 88.4248,140.5713 88.3972,141.03 L 91.0591,141.03 L 91.0591,141.029 L 91.0591,141.029 z"
       style="fill:#203994;fill-rule:nonzero;fill-opacity:1" /><path
       id="_43669856"
       class="fil3"
       d="M 135.488,147.338 C 135.0499,147.338 134.667,147.1944 134.3393,146.911 C 134.0117,146.6275 133.8497,146.2298 133.8497,145.7218 C 133.8497,145.2726 134.0043,144.8934 134.3172,144.5804 C 134.6302,144.2675 135.0131,144.1129 135.4696,144.1129 C 135.9225,144.1129 136.309,144.2675 136.6294,144.5804 C 136.9497,144.8934 137.108,145.2726 137.108,145.7218 C 137.108,146.2225 136.946,146.6201 136.622,146.9073 C 136.298,147.1944 135.9225,147.338 135.488,147.338 L 135.488,147.338 z"
       style="fill:#203994;fill-rule:nonzero;fill-opacity:1" /><path
       id="_43668712"
       class="fil1"
       d="M 134.291,140.24 L 133.9449,135.0746 C 133.8823,134.0695 133.8492,133.3479 133.8492,132.9098 C 133.8492,132.3097 134.0038,131.8458 134.3167,131.5107 C 134.6297,131.1757 135.042,131.01 135.5538,131.01 C 136.1723,131.01 136.5847,131.2236 136.7945,131.6506 C 137.0044,132.0777 137.1075,132.6962 137.1075,133.5025 C 137.1075,133.9775 137.0817,134.4561 137.0301,134.9458 L 136.5663,140.2621 C 136.5184,140.8954 136.4116,141.3814 136.2459,141.7201 C 136.0803,142.0551 135.8041,142.2244 135.4249,142.2244 C 135.0347,142.2244 134.7659,142.0625 134.615,141.7348 C 134.464,141.4071 134.3572,140.9101 134.291,140.24 L 134.291,140.24 z"
       style="fill:#4d485b;fill-rule:nonzero" /><path
       id="_43670640"
       class="fil1"
       d="M 129.988,133.922 L 126.494,133.922 L 126.494,145.4089 C 126.494,146.0679 126.3468,146.5613 126.0522,146.8816 C 125.7577,147.2019 125.3748,147.3602 124.9072,147.3602 C 124.436,147.3602 124.0494,147.1982 123.7512,146.8742 C 123.453,146.5503 123.302,146.0606 123.302,145.4089 L 123.302,133.922 L 119.8081,133.922 C 119.2595,133.922 118.8545,133.8006 118.5894,133.5613 C 118.3207,133.3182 118.1881,133.0016 118.1881,132.604 C 118.1881,132.1953 118.328,131.8713 118.6042,131.6357 C 118.8803,131.3964 119.2816,131.2786 119.8081,131.2786 L 129.988,131.2786 C 130.5439,131.2786 130.9526,131.4001 131.225,131.6468 C 131.4938,131.8897 131.63,132.2101 131.63,132.604 C 131.63,133.0016 131.4901,133.3182 131.2176,133.5613 C 130.9452,133.8006 130.5365,133.922 129.988,133.922 z"
       style="fill:#4d485b;fill-rule:nonzero" /><path
       id="_43668544"
       class="fil1"
       d="M 111.012,142.342 C 111.012,143.2992 110.7653,144.1607 110.272,144.9228 C 109.7823,145.6849 109.0607,146.2814 108.1108,146.7121 C 107.161,147.1429 106.0381,147.3601 104.7347,147.3601 C 103.1737,147.3601 101.8888,147.0656 100.8727,146.4765 C 100.1547,146.0494 99.5693,145.4861 99.1201,144.7756 C 98.671,144.0687 98.4464,143.3802 98.4464,142.7102 C 98.4464,142.3236 98.5826,141.9885 98.8514,141.7124 C 99.1201,141.4363 99.4626,141.2964 99.8823,141.2964 C 100.221,141.2964 100.5045,141.4068 100.7401,141.6204 C 100.9721,141.8376 101.1709,142.1579 101.3365,142.5813 C 101.539,143.0857 101.7562,143.5054 101.9919,143.8441 C 102.2238,144.1791 102.5552,144.4589 102.9786,144.6798 C 103.402,144.8971 103.9579,145.0075 104.6501,145.0075 C 105.5999,145.0075 106.3694,144.7866 106.9621,144.3448 C 107.5549,143.903 107.8531,143.3507 107.8531,142.6881 C 107.8531,142.1652 107.6948,141.7382 107.3745,141.4105 C 107.0542,141.0828 106.6382,140.8325 106.1338,140.6631 C 105.6257,140.4901 104.9483,140.306 104.0978,140.1109 C 102.9638,139.8458 102.0103,139.5328 101.2445,139.1794 C 100.4787,138.8223 99.8712,138.3363 99.4221,137.7215 C 98.9729,137.1066 98.7483,136.3445 98.7483,135.4314 C 98.7483,134.5625 98.9839,133.7894 99.4589,133.112 C 99.9338,132.4382 100.6223,131.9191 101.5206,131.5546 C 102.419,131.1901 103.4756,131.0097 104.6906,131.0097 C 105.6625,131.0097 106.5019,131.1312 107.2088,131.3705 C 107.9194,131.6135 108.5048,131.9301 108.9724,132.3315 C 109.4399,132.7291 109.7823,133.1488 109.9996,133.5869 C 110.2131,134.025 110.3235,134.4521 110.3235,134.8718 C 110.3235,135.251 110.1873,135.5934 109.9186,135.899 C 109.6498,136.2046 109.3111,136.3592 108.9098,136.3592 C 108.5416,136.3592 108.2655,136.2672 108.074,136.0831 C 107.8826,135.9027 107.6764,135.6008 107.4555,135.1848 C 107.1647,134.5883 106.8222,134.1208 106.4173,133.7857 C 106.016,133.4507 105.368,133.285 104.477,133.285 C 103.6486,133.285 102.9822,133.4654 102.4779,133.8299 C 101.9698,134.1944 101.7157,134.6288 101.7157,135.1406 C 101.7157,135.4572 101.8004,135.7296 101.9735,135.9579 C 102.1465,136.1899 102.3858,136.3887 102.6877,136.5544 C 102.9896,136.7163 103.2952,136.8489 103.6045,136.9409 C 103.9137,137.033 104.4218,137.1692 105.136,137.3496 C 106.027,137.5595 106.8333,137.7877 107.5549,138.0418 C 108.2802,138.2921 108.8914,138.5977 109.3994,138.9585 C 109.9075,139.3156 110.3015,139.7721 110.5849,140.3207 C 110.8684,140.873 111.012,141.5467 111.012,142.342 L 111.012,142.342 z"
       style="fill:#4d485b;fill-rule:nonzero" /><path
       id="_43667368"
       class="fil3"
       d="M 114.302,131.01 C 114.7402,131.01 115.1231,131.1536 115.4507,131.4371 C 115.7784,131.7206 115.9404,132.1182 115.9404,132.6263 C 115.9404,133.0754 115.7858,133.4547 115.4728,133.7676 C 115.1599,134.0806 114.777,134.2352 114.3205,134.2352 C 113.8676,134.2352 113.481,134.0806 113.1607,133.7676 C 112.8404,133.4547 112.6821,133.0754 112.6821,132.6263 C 112.6821,132.1256 112.8441,131.7279 113.1681,131.4408 C 113.4921,131.1536 113.8676,131.01 114.302,131.01 z"
       style="fill:#203994;fill-rule:nonzero;fill-opacity:1" /><path
       id="_43664872"
       class="fil1"
       d="M 115.499,138.108 L 115.8451,143.2734 C 115.9077,144.2785 115.9408,145.0002 115.9408,145.4383 C 115.9408,146.0384 115.7862,146.5023 115.4732,146.8373 C 115.1603,147.1723 114.748,147.338 114.2362,147.338 C 113.6177,147.338 113.2053,147.1245 112.9954,146.6974 C 112.7856,146.2704 112.6825,145.6518 112.6825,144.8455 C 112.6825,144.3706 112.7083,143.892 112.7598,143.4023 L 113.2237,138.0859 C 113.2716,137.4527 113.3783,136.9667 113.544,136.628 C 113.7097,136.293 113.9858,136.1236 114.365,136.1236 C 114.7553,136.1236 115.0241,136.2856 115.175,136.6133 C 115.326,136.9409 115.4327,137.438 115.499,138.108 z"
       style="fill:#4d485b;fill-rule:nonzero" /><path
       id="_43663432"
       class="fil3"
       d="M 86.0926,142.951 C 86.1174,142.9504 86.1425,142.9501 86.1675,142.9501 C 86.8476,142.9501 87.5278,143.1164 87.9843,143.5577 C 88.4408,143.999 88.5385,144.5839 88.5013,145.2038 L 88.4584,146.1695 C 88.1286,146.2229 87.7957,146.2558 87.4614,146.2671 L 87.5232,144.9876 C 87.5501,144.4299 87.1162,143.9805 86.5463,143.8867 C 86.2539,143.8386 83.9391,143.8383 82.0472,143.8484 C 81.8194,143.5702 81.6181,143.2697 81.4447,142.9503 L 86.0926,142.951 L 86.0926,142.951 z"
       style="fill:#203994;fill-rule:nonzero;fill-opacity:1" /></g></g>
</svg>